# xmcd
#
# Track frame offsets:
#	150
#	25202
#	43742
#	61070
#	76722
#	96010
#	113195
#	131297
#	148565
#	167030
#	183070
#	211932
#	217632
#
# Disc length: 3171 seconds
#
# Revision: 1
# Processed by: cddbd v1.5.1PL0 Copyright (c) Steve Scherf et al.
# Submitted via: CDex 1.50Beta5
#
DISCID=9d0c610d
DTITLE=新田恵利 - Last Message
DYEAR=1990
DGENRE=Pop
TTITLE0=シンデレラCASTLE
TTITLE1=銀色のスーベニール
TTITLE2=真夏の滑走路
TTITLE3=夜風のウィンクムーン
TTITLE4=LAST TEEN
TTITLE5=さよならの風
TTITLE6=悲しみに方舟を出して
TTITLE7=冬のオペラグラス
TTITLE8=恋のロープをほどかないで
TTITLE9=不思議な手品のように
TTITLE10=真冬のペニーレイン
TTITLE11=Last Message
TTITLE12=いいだせなくて
EXTD=
EXTT0=
EXTT1=
EXTT2=
EXTT3=
EXTT4=
EXTT5=
EXTT6=
EXTT7=
EXTT8=
EXTT9=
EXTT10=
EXTT11=
EXTT12=
PLAYORDER=
